<svg width="19" height="19" viewBox="0 0 19 19" fill="none" xmlns="http://www.w3.org/2000/svg">
<path d="M17.4166 4.52831L13.7749 1.47247L12.7537 2.68372L16.3953 5.73956L17.4166 4.52831ZM6.23825 2.68372L5.22492 1.47247L1.58325 4.52039L2.6045 5.73164L6.23825 2.68372ZM9.89575 6.33331H8.70825V11.0833L12.4687 13.3396L13.0624 12.3658L9.89575 10.4896V6.33331ZM9.49992 3.16664C5.56534 3.16664 2.37492 6.35706 2.37492 10.2916C2.37492 14.2262 5.55742 17.4166 9.49992 17.4166C13.4345 17.4166 16.6249 14.2262 16.6249 10.2916C16.6249 6.35706 13.4345 3.16664 9.49992 3.16664ZM9.49992 15.8333C6.43617 15.8333 3.95825 13.3554 3.95825 10.2916C3.95825 7.22789 6.43617 4.74997 9.49992 4.74997C12.5637 4.74997 15.0416 7.22789 15.0416 10.2916C15.0416 13.3554 12.5637 15.8333 9.49992 15.8333Z" fill="#0A0A0A"/>
</svg>
