<svg width="27" height="38" viewBox="0 0 27 38" fill="none" xmlns="http://www.w3.org/2000/svg">
<path fill-rule="evenodd" clip-rule="evenodd" d="M12.4112 3.41853C10.6976 3.41853 9.30844 4.94907 9.30844 6.83708V7.42065C5.69307 8.82853 3.10282 12.6274 3.10282 17.0927L3.10282 19.6566L3.10282 23.2455L0.593469 27.047C-0.0929531 28.0868 -0.191715 29.4631 0.337862 30.6089C0.867441 31.7547 1.93578 32.4762 3.10282 32.4762H7.75703C7.75703 35.3082 9.8408 37.604 12.4112 37.604C14.9817 37.604 17.0655 35.3082 17.0655 32.4762H21.7197C22.8867 32.4762 23.9551 31.7547 24.4846 30.6089C25.0142 29.4631 24.9154 28.0868 24.229 27.047L21.7197 23.2455L21.7197 19.6566V17.0927C21.7197 12.6274 19.1294 8.82853 15.5141 7.42065V6.83708C15.5141 4.94907 14.1249 3.41853 12.4112 3.41853ZM13.9645 29.0577H13.9627H10.8598L6.93944 29.0577H3.10282L5.35941 25.6391L5.61218 25.2562C5.99787 24.6719 6.20563 23.968 6.20563 23.2455V19.6566V17.0927C6.20563 13.3167 8.98398 10.2556 12.4112 10.2556C15.8385 10.2556 18.6169 13.3167 18.6169 17.0927V19.6566V23.2455C18.6169 23.968 18.8246 24.6719 19.2103 25.2562L19.4631 25.6391L21.7197 29.0577H17.8831H13.9645ZM12.4112 34.1855C11.5544 34.1855 10.8598 33.4202 10.8598 32.4762H13.9627C13.9627 33.4202 13.2681 34.1855 12.4112 34.1855Z" fill="#0A0A0A"/>
<ellipse cx="23.2713" cy="3.41855" rx="3.10281" ry="3.41855" fill="#FF0000"/>
</svg>
