<svg width="40" height="40" viewBox="0 0 40 40" fill="none" xmlns="http://www.w3.org/2000/svg">
<path opacity="0.4" d="M21.6271 5.18938L25.3379 12.6465C25.6113 13.1868 26.1331 13.562 26.7349 13.6453L35.07 14.8593C35.5568 14.9277 35.9986 15.1845 36.297 15.5763C36.592 15.9632 36.7187 16.4534 36.647 16.9353C36.5887 17.3356 36.4003 17.7057 36.1119 17.9892L30.0723 23.8439C29.6305 24.2524 29.4305 24.8577 29.5372 25.4497L31.0242 33.6805C31.1825 34.6744 30.5241 35.6115 29.5372 35.7999C29.1304 35.865 28.7137 35.7966 28.3469 35.6098L20.912 31.7362C20.3602 31.4577 19.7084 31.4577 19.1566 31.7362L11.7217 35.6098C10.8082 36.0951 9.67625 35.7649 9.16781 34.8645C8.97943 34.5059 8.91275 34.0974 8.97443 33.6989L10.4614 25.4664C10.5681 24.8761 10.3664 24.2674 9.9263 23.8589L3.88667 18.0076C3.16819 17.3139 3.14652 16.1716 3.83833 15.4529C3.85333 15.4379 3.87 15.4212 3.88667 15.4046C4.1734 15.1128 4.55015 14.9277 4.9569 14.8793L13.292 13.6637C13.8922 13.5786 14.4139 13.2068 14.689 12.6632L18.2664 5.18938C18.5848 4.54905 19.245 4.15052 19.9618 4.16719H20.1852C20.807 4.24223 21.3488 4.62742 21.6271 5.18938Z" fill="#00A651"/>
<path d="M19.9867 31.5285C19.6638 31.5386 19.3493 31.6253 19.0664 31.7804L11.6678 35.6453C10.7626 36.0773 9.67925 35.742 9.1717 34.8763C8.98366 34.5227 8.91543 34.1173 8.97867 33.7203L10.4564 25.5053C10.5562 24.9081 10.3565 24.301 9.92221 23.8806L3.87988 18.0308C3.16265 17.3286 3.14934 16.176 3.85159 15.457C3.86157 15.447 3.86989 15.4387 3.87988 15.4303C4.1661 15.1468 4.53553 14.96 4.93325 14.9016L13.2754 13.6739C13.8794 13.5972 14.4036 13.2202 14.6699 12.6731L18.2959 5.10522C18.6404 4.49472 19.3011 4.13109 20 4.16945C19.9867 4.66486 19.9867 31.1916 19.9867 31.5285Z" fill="#00A651"/>
</svg>
