<?xml version="1.0" encoding="iso-8859-1"?>
<!-- Generator: Adobe Illustrator 19.0.0, SVG Export Plug-In . SVG Version: 6.00 Build 0)  -->
<svg version="1.1" id="Layer_1" xmlns="http://www.w3.org/2000/svg" xmlns:xlink="http://www.w3.org/1999/xlink" x="0px" y="0px"
	 viewBox="0 0 512 512" style="enable-background:new 0 0 512 512;" xml:space="preserve">
<circle style="fill:#7DC86E;" cx="256" cy="161.937" r="25.653"/>
<path style="fill:#FFAF3C;" d="M256,161.937c28.336,0,51.307,22.971,51.307,51.307c0,145.37-22.97,290.739-51.307,290.739
	s-51.307-145.37-51.307-290.739C204.693,184.908,227.664,161.937,256,161.937z"/>
<path style="fill:#FF962D;" d="M238.898,213.244c0-24.821,11.75-45.521,27.362-50.276c-3.316-0.672-6.746-1.03-10.26-1.03
	c-28.336,0-51.307,22.971-51.307,51.307c0,145.37,22.971,290.739,51.307,290.739c3.515,0,6.946-2.248,10.261-6.442
	C250.649,467.914,238.898,340.585,238.898,213.244z"/>
<path d="M289.54,164.347c0.075-0.759,0.13-1.557,0.13-2.409c0-12.278-6.609-23.038-16.453-28.921
	c2.507-14.139,11.747-59.045,31.952-85.985c2.656-3.541,1.938-8.567-1.603-11.223c-3.542-2.655-8.566-1.939-11.223,1.603
	c-13.805,18.406-22.808,43.372-28.326,63.476V8.017C264.017,3.589,260.428,0,256,0c-4.428,0-8.017,3.589-8.017,8.017v92.871
	c-5.518-20.104-14.521-45.07-28.326-63.476c-2.655-3.542-7.682-4.26-11.223-1.603c-3.541,2.656-4.26,7.682-1.603,11.223
	c20.206,26.943,29.447,71.85,31.952,85.986c-9.845,5.882-16.453,16.642-16.453,28.92c0,0.85,0.056,1.65,0.13,2.409
	c-15.558,10.705-25.784,28.626-25.784,48.898c0,71.387,5.519,144.732,15.141,201.229c4.869,28.58,10.498,51.261,16.732,67.412
	C233.54,494.813,241.816,512,256,512c14.184,0,22.46-17.187,27.45-30.115c6.235-16.151,11.865-38.832,16.732-67.412
	c9.622-56.496,15.141-129.842,15.141-201.229C315.324,192.973,305.098,175.052,289.54,164.347z M256,144.301
	c7.763,0,14.358,5.049,16.708,12.031c-5.303-1.56-10.907-2.411-16.708-2.411c-5.801,0-11.405,0.852-16.708,2.411
	C241.642,149.35,248.237,144.301,256,144.301z M256,495.967c-2.965,0-16.472-14.288-28.377-84.185
	c-6.047-35.504-10.444-77.816-12.84-122.111h24.114c4.428,0,8.017-3.589,8.017-8.017c0-4.427-3.588-8.017-8.017-8.017h-24.89
	c-0.74-17.341-1.169-34.892-1.271-52.376h60.366c4.428,0,8.017-3.589,8.017-8.017s-3.588-8.017-8.017-8.017h-59.636
	c3.772-20.051,21.404-35.273,42.533-35.273c23.871,0,43.29,19.42,43.29,43.29c0,8.718-0.083,17.464-0.247,26.203
	c-0.096-0.003-0.19-0.015-0.288-0.015h-8.551c-4.428,0-8.017,3.589-8.017,8.017s3.588,8.017,8.017,8.017h8.445
	c-0.707,23.599-1.988,46.991-3.797,69.478h-30.302c-4.428,0-8.017,3.589-8.017,8.017c0,4.427,3.588,8.017,8.017,8.017h28.906
	c-2.373,25.377-5.425,49.338-9.08,70.805C272.472,481.679,258.965,495.967,256,495.967z"/>
<path d="M264.551,376.251h-17.102c-4.428,0-8.017,3.589-8.017,8.017c0,4.427,3.588,8.017,8.017,8.017h17.102
	c4.428,0,8.017-3.589,8.017-8.017C272.568,379.84,268.98,376.251,264.551,376.251z"/>
<path d="M264.017,247.449c0-4.427-3.588-8.017-8.017-8.017h-17.102c-4.428,0-8.017,3.589-8.017,8.017s3.588,8.017,8.017,8.017H256
	C260.428,255.466,264.017,251.876,264.017,247.449z"/>
<g>
</g>
<g>
</g>
<g>
</g>
<g>
</g>
<g>
</g>
<g>
</g>
<g>
</g>
<g>
</g>
<g>
</g>
<g>
</g>
<g>
</g>
<g>
</g>
<g>
</g>
<g>
</g>
<g>
</g>
</svg>
